<mxfile host="app.diagrams.net" modified="2021-03-17T19:00:15.709Z" agent="5.0 (X11; Linux x86_64) AppleWebKit/537.36 (KHTML, like Gecko) Chrome/76.0.3809.100 Safari/537.36" etag="lYqxGlRW_x2R5eGirP63" version="14.4.4" type="github">
  <diagram id="mvSFThn_2-n2RpyTxV1i" name="Page-1">
    <mxGraphModel dx="1422" dy="794" grid="1" gridSize="10" guides="1" tooltips="1" connect="1" arrows="1" fold="1" page="1" pageScale="1" pageWidth="850" pageHeight="1100" math="0" shadow="0">
      <root>
        <mxCell id="0" />
        <mxCell id="1" parent="0" />
        <mxCell id="VyurRsliDYGgXxVBx-93-1" value="&lt;font style=&quot;font-size: 20px&quot;&gt;Source&lt;/font&gt;" style="rounded=1;whiteSpace=wrap;html=1;fillColor=none;dashed=1;strokeWidth=4;strokeColor=#808080;verticalAlign=top;" parent="1" vertex="1">
          <mxGeometry x="50" y="60" width="190" height="130" as="geometry" />
        </mxCell>
        <mxCell id="N_gBeXLFdJwF2WTDQh-c-1" value="" style="rounded=0;whiteSpace=wrap;html=1;" vertex="1" parent="1">
          <mxGeometry x="85" y="610" width="215" height="120" as="geometry" />
        </mxCell>
        <mxCell id="N_gBeXLFdJwF2WTDQh-c-2" value="" style="rounded=0;whiteSpace=wrap;html=1;" vertex="1" parent="1">
          <mxGeometry x="210" y="390" width="120" height="60" as="geometry" />
        </mxCell>
        <mxCell id="N_gBeXLFdJwF2WTDQh-c-3" value="&lt;font style=&quot;font-size: 20px&quot;&gt;Source&lt;/font&gt;" style="rounded=1;whiteSpace=wrap;html=1;fillColor=none;dashed=1;strokeWidth=4;strokeColor=#808080;verticalAlign=top;" vertex="1" parent="1">
          <mxGeometry x="370" y="260" width="270" height="280" as="geometry" />
        </mxCell>
        <mxCell id="N_gBeXLFdJwF2WTDQh-c-4" value="" style="rounded=0;whiteSpace=wrap;html=1;" vertex="1" parent="1">
          <mxGeometry x="395" y="310" width="120" height="60" as="geometry" />
        </mxCell>
        <mxCell id="N_gBeXLFdJwF2WTDQh-c-5" value="" style="rounded=0;whiteSpace=wrap;html=1;" vertex="1" parent="1">
          <mxGeometry x="440" y="320" width="130" height="60" as="geometry" />
        </mxCell>
        <mxCell id="N_gBeXLFdJwF2WTDQh-c-6" value="" style="rounded=0;whiteSpace=wrap;html=1;" vertex="1" parent="1">
          <mxGeometry x="495" y="330" width="120" height="60" as="geometry" />
        </mxCell>
      </root>
    </mxGraphModel>
  </diagram>
</mxfile>
